<svg xmlns="http://www.w3.org/2000/svg" width="1024" height="1024" viewBox="0 0 1024 1024" version="1.1"><path d="M 488 144.491 C 432.200 150.516, 380.565 182.890, 348.587 231.902 C 320.057 275.628, 310.917 332.263, 323.911 384.804 C 334.668 428.300, 362.783 470.085, 398.348 495.435 L 405.197 500.316 400.348 502.157 C 397.682 503.170, 395.168 503.999, 394.762 503.999 C 394.356 504, 388.376 506.237, 381.474 508.972 C 284.097 547.547, 214.156 631.818, 195.125 733.500 C 189.445 763.850, 189.678 788.027, 195.801 803.510 C 205.523 828.098, 226.502 844.595, 260.687 854.535 C 315.920 870.595, 400.433 878.404, 518.500 878.357 C 623.024 878.315, 695.458 872.200, 748.344 858.954 C 794.211 847.466, 819.206 829.253, 829.308 799.957 C 839.701 769.816, 828.936 708.294, 804.330 657.212 C 776.878 600.220, 727.278 549.721, 670.335 520.786 C 654.752 512.867, 648.072 510.004, 631.249 504.033 L 620.998 500.395 627.214 496.012 C 643.310 484.660, 666.799 458.465, 678.469 438.851 C 711.860 382.728, 714.726 310.089, 685.821 252.500 C 673.706 228.362, 653.848 203.557, 632.957 186.465 C 592.830 153.635, 541.356 138.731, 488 144.491 M 495 174.155 C 483.329 175.240, 464.066 179.808, 453.438 184.010 C 432.445 192.310, 414.852 203.551, 398.674 219 C 355.389 260.334, 338.599 319.596, 353.485 378.500 C 369.013 439.947, 417.725 486.348, 480 499.016 C 552.802 513.825, 625.813 478.746, 657.985 413.500 C 668.692 391.786, 672.886 376.596, 675.146 351.345 C 676.434 336.958, 675.416 319.787, 672.410 305.200 C 659.323 241.682, 607.978 190.124, 544.759 177.018 C 526.704 173.275, 512.967 172.485, 495 174.155 M 435.500 524.426 C 410.753 529.256, 393.565 535.087, 370.500 546.479 C 314.403 574.186, 274.346 614.093, 247.018 669.500 C 231.284 701.401, 222.997 730.656, 220.056 764.684 C 218.485 782.869, 221.662 794.814, 230.804 805.089 C 246.578 822.819, 284.004 833.805, 353 840.959 C 453.389 851.367, 597.292 850.952, 686.500 839.996 C 762.546 830.656, 796.100 815.184, 803.595 786 C 807.393 771.212, 802.458 734.958, 792.414 703.858 C 770.578 636.248, 720.424 578.371, 656 546.438 C 632.957 535.016, 612.558 528.387, 587.352 524.128 L 576.204 522.245 565.352 525.018 C 549.741 529.008, 527.022 532, 512.337 532 C 498.125 532, 477.721 529.216, 463.070 525.277 C 450.064 521.780, 449.193 521.753, 435.500 524.426" stroke="none" fill="#6e1f31" fill-rule="evenodd"/><path d="M 495 174.155 C 483.329 175.240, 464.066 179.808, 453.438 184.010 C 432.445 192.310, 414.852 203.551, 398.674 219 C 355.389 260.334, 338.599 319.596, 353.485 378.500 C 369.013 439.947, 417.725 486.348, 480 499.016 C 552.802 513.825, 625.813 478.746, 657.985 413.500 C 668.692 391.786, 672.886 376.596, 675.146 351.345 C 676.434 336.958, 675.416 319.787, 672.410 305.200 C 659.323 241.682, 607.978 190.124, 544.759 177.018 C 526.704 173.275, 512.967 172.485, 495 174.155" stroke="none" fill="#f68c17" fill-rule="evenodd"/><path d="M 435.500 524.426 C 410.753 529.256, 393.565 535.087, 370.500 546.479 C 314.403 574.186, 274.346 614.093, 247.018 669.500 C 231.284 701.401, 222.997 730.656, 220.056 764.684 C 218.485 782.869, 221.662 794.814, 230.804 805.089 C 246.578 822.819, 284.004 833.805, 353 840.959 C 453.389 851.367, 597.292 850.952, 686.500 839.996 C 762.546 830.656, 796.100 815.184, 803.595 786 C 807.393 771.212, 802.458 734.958, 792.414 703.858 C 770.578 636.248, 720.424 578.371, 656 546.438 C 632.957 535.016, 612.558 528.387, 587.352 524.128 L 576.204 522.245 565.352 525.018 C 549.741 529.008, 527.022 532, 512.337 532 C 498.125 532, 477.721 529.216, 463.070 525.277 C 450.064 521.780, 449.193 521.753, 435.500 524.426" stroke="none" fill="#04d3e3" fill-rule="evenodd"/></svg>