<svg xmlns="http://www.w3.org/2000/svg" width="1024" height="1024" viewBox="0 0 1024 1024" version="1.1"><path d="M 477.500 151.679 C 451.616 154.513, 430.813 158.648, 409.500 165.193 C 397.771 168.795, 393.386 170.290, 382 174.568 C 366.777 180.286, 340.143 193.227, 328.217 200.700 C 302.611 216.743, 291.383 224.965, 274.674 239.909 C 238.672 272.106, 210.369 308.726, 191.517 347.500 C 159.884 412.565, 149.064 471.495, 155.991 541 C 160.305 584.296, 168.074 614.432, 184.347 651 C 198.296 682.346, 220.358 716.888, 243.429 743.500 C 274.826 779.717, 324.091 815.817, 367.633 834.511 C 405.833 850.912, 451.580 861.670, 492.613 863.902 C 539.383 866.446, 586.046 859.804, 633.500 843.846 C 700.482 821.322, 767.701 769.346, 808.291 708.691 C 825.849 682.453, 834.440 666.549, 844.314 642 C 857.778 608.528, 864.170 584.098, 868.650 549 C 871.236 528.734, 871.246 486.404, 868.669 466 C 863.313 423.592, 853.964 391.154, 836.444 354.192 C 820.349 320.235, 795.620 285.280, 766.855 255.824 C 744.897 233.338, 733.541 224.228, 706 207.002 C 662.621 179.871, 618.033 162.814, 570.500 155.166 C 539.646 150.202, 503.398 148.843, 477.500 151.679 M 498 168.591 C 448.383 172.664, 420.254 178.931, 381.137 194.628 C 351.265 206.614, 315.862 228.351, 290.500 250.276 C 271.972 266.293, 255.658 283.734, 241.343 302.830 C 194.914 364.765, 172.684 430.136, 172.593 505 C 172.500 581.779, 194.883 649.211, 240.955 710.951 C 280.557 764.020, 338.333 806.021, 401.221 827.458 C 422.052 834.559, 437.836 838.530, 461.655 842.662 C 476.867 845.300, 478.878 845.410, 512 845.410 C 545.088 845.410, 547.155 845.298, 562.500 842.661 C 577.982 840, 581.339 839.272, 598.500 834.850 C 618.575 829.678, 646.219 819.272, 666 809.440 C 674.229 805.350, 696.229 792.245, 705 786.208 C 767.133 743.443, 815.532 678.534, 836.763 609.500 C 841.852 592.953, 843.413 586.971, 846.027 574 C 863.886 485.382, 845.611 392.416, 796.196 320.500 C 755.630 261.464, 700.079 217.081, 635 191.712 C 598.290 177.402, 559.917 169.871, 517.500 168.653 C 509.250 168.416, 500.475 168.388, 498 168.591 M 487.500 276.045 C 459.918 279.330, 440.390 284.898, 417.500 296.003 C 360.242 323.784, 316.402 371.809, 297.632 427.315 C 289.835 450.372, 286.585 472.733, 286.707 502.500 C 286.838 534.646, 291.843 560.921, 303.755 592 C 317.470 627.780, 351.821 668.179, 389.063 692.329 C 397.856 698.032, 418.383 708.769, 425.500 711.389 C 427.700 712.199, 431.975 713.804, 435 714.956 C 442.189 717.693, 458.542 722.377, 468.036 724.420 C 496.539 730.552, 540.536 730.579, 568 724.482 C 592.077 719.137, 616.080 709.417, 634.380 697.601 C 667.158 676.438, 696.135 642.600, 714.063 604.550 C 728.179 574.591, 734.811 539.129, 733.698 499.554 C 733.136 479.568, 730.931 460.826, 728.845 458.314 C 727.945 457.229, 708.396 457.037, 620.124 457.246 L 512.500 457.500 512.239 499.606 L 511.979 541.713 518.136 542.356 C 521.523 542.710, 551.514 543, 584.783 543 L 645.272 543 644.635 547.644 C 642.972 559.776, 634.984 579.251, 626.458 591.959 C 619.485 602.353, 607.308 614.834, 597.145 622.008 C 559.002 648.929, 514.409 655.518, 468.911 640.956 C 432.172 629.198, 397.797 598.655, 381.375 563.177 C 372.337 543.651, 368.538 526.502, 368.597 505.500 C 368.697 470.195, 380.010 438.261, 402.201 410.644 C 421.264 386.920, 452.045 368.609, 485.053 361.356 C 496.853 358.763, 525.871 358.746, 538 361.324 C 561.612 366.344, 585.927 378.239, 601.858 392.563 L 607.006 397.190 616.314 387.345 C 639.739 362.569, 663.535 336.780, 663.882 335.794 C 664.458 334.158, 645.368 317.777, 632.500 308.866 C 606.968 291.183, 572.706 279.206, 537.241 275.566 C 518.399 273.632, 506.829 273.744, 487.500 276.045" stroke="none" fill="#040404" fill-rule="evenodd"/></svg>